<svg xmlns="http://www.w3.org/2000/svg" xmlns:xlink="http://www.w3.org/1999/xlink">
    <symbol id="loading-indicator" viewBox="0 0 346 346"><path fill="none" stroke="#463177" stroke-miterlimit="10" stroke-width="10" d="M255.4 26.6C336 72 364.8 174 319.7 254.8c-45.1 80.8-146.9 109.9-227.8 65.3-.4-.2-.8-.5-1.3-.7-16.5-9.5-27.6-27.3-27.6-47.7 0-30.4 24.6-55 55-55 9.6 0 18.7 2.5 26.5 6.8l57 31.4c7.9 4.3 16.9 6.8 26.5 6.8 30.4 0 55-24.6 55-55s-24.6-55-55-55c-9 0-17.6 2.2-25.1 6L143 188.4c-7.5 3.9-16 6-25.1 6-30.4 0-55-24.6-55-55s24.6-55 55-55c9.6 0 18.7 2.5 26.5 6.8l57 31.4c7.9 4.3 16.9 6.8 26.5 6.8 30.4 0 55-24.6 55-55 .1-20.5-11-38.3-27.5-47.8-.4-.2-.8-.5-1.3-.7C173.2-18.7 71.4 10.4 26.3 91.2-18.8 172 10 274 90.6 319.4"/></symbol>
    <symbol id="icon_fb" viewBox="0 0 24 24"><path d="M22.7 0H1.3C.6 0 0 .6 0 1.3v21.4c0 .7.6 1.3 1.3 1.3h11.5v-9.3H9.7v-3.6h3.1V8.4c0-3.1 1.9-4.8 4.7-4.8 1.3 0 2.5.1 2.8.1V7h-1.9c-1.5 0-1.8.7-1.8 1.8v2.3h3.6l-.5 3.6h-3.1V24h6.1c.7 0 1.3-.6 1.3-1.3V1.3c0-.7-.6-1.3-1.3-1.3z"/></symbol>
    <symbol id="icon_behance" viewBox="0 0 24 24"><path d="M18 12.3h-3c.3-1.9 2.9-1.7 3 0zm-9.7.7H6v2h2.2c2.1 0 1.9-2 .1-2zm-.1-4H6v2h2.4c1.7 0 1.9-2-.2-2zM24 0v24H0V0h24zM14 8h5V7h-5v1zm-3.6 3.6c1.9-1 1.8-4.6-1.8-4.6H4v10h4.3c4.5 0 4.5-4.5 2.1-5.4zm9.5.6c-.3-1.8-1.5-2.9-3.6-2.9s-3.4 1.3-3.4 3.9c0 2.6 1.4 3.8 3.4 3.8s3.1-1.1 3.4-2h-2.1c-.7.9-2.9.5-2.8-1.4H20c0-.6 0-1-.1-1.4z"/></symbol>
    <symbol id="icon_pinterest" viewBox="0 0 24 24"><path d="M12 0C5.4 0 0 5.4 0 12c0 5.1 3.2 9.4 7.6 11.2-.1-.9-.2-2.4 0-3.4.2-.9 1.4-6 1.4-6s-.3-.8-.3-1.8c0-1.7 1-2.9 2.2-2.9 1 0 1.5.8 1.5 1.7 0 1-.7 2.6-1 4-.3 1.2.6 2.2 1.8 2.2 2.1 0 3.8-2.2 3.8-5.5 0-2.9-2.1-4.9-5-4.9-3.4 0-5.4 2.6-5.4 5.2 0 1 .4 2.1.9 2.7.1.1.1.2.1.3l-.3 1.4c-.1.2-.2.3-.4.2-1.5-.7-2.4-2.9-2.4-4.6 0-3.8 2.8-7.3 7.9-7.3 4.2 0 7.4 3 7.4 6.9 0 4.1-2.6 7.5-6.2 7.5-1.2 0-2.4-.6-2.8-1.4l-.7 2.9c-.3 1-1 2.4-1.5 3.1 1 .3 2.2.5 3.4.5 6.6 0 12-5.4 12-12S18.6 0 12 0z"/></symbol>
    <symbol id="hamburger" viewBox="250 3274 160 112"><path d="M402 3338H258c-4.4 0-8-3.6-8-8s3.6-8 8-8h144c4.4 0 8 3.6 8 8s-3.6 8-8 8zM402 3290H258c-4.4 0-8-3.6-8-8s3.6-8 8-8h144c4.4 0 8 3.6 8 8s-3.6 8-8 8zM402 3386H258c-4.4 0-8-3.6-8-8s3.6-8 8-8h144c4.4 0 8 3.6 8 8s-3.6 8-8 8z"/></symbol>
    <symbol id="icon-close" viewBox="270.8 3271.1 117.8 117.8"><path d="M341 3330l45.3-45.3c3.1-3.1 3.1-8.2 0-11.3-3.1-3.1-8.2-3.1-11.3 0l-45.3 45.3-45.3-45.3c-3.1-3.1-8.2-3.1-11.3 0-3.1 3.1-3.1 8.2 0 11.3l45.3 45.3-45.3 45.3c-3.1 3.1-3.1 8.2 0 11.3 3.1 3.1 8.2 3.1 11.3 0l45.3-45.3 45.3 45.3c3.1 3.1 8.2 3.1 11.3 0 3.1-3.1 3.1-8.2 0-11.3L341 3330z"/></symbol>
    <symbol id="icon-arrow" viewBox="1250 265.5 160 129"><path fill="#14B1AA" d="M1351.1 268l56.5 56.5h.1c.1.1.2.3.4.5s.4.5.6.7l.3.6c.1.3.3.5.4.8s.2.5.2.8c.1.2.2.5.2.7.1.5.2 1 .2 1.5s-.1 1.1-.2 1.6c0 .2-.1.4-.2.7-.1.3-.1.6-.3.8-.1.3-.3.5-.4.7l-.3.6c-.2.3-.4.5-.6.7-.1.2-.2.3-.4.5h-.1l-56.5 56.5c-3.1 3.1-8.2 3.1-11.3 0-1.6-1.6-2.3-3.6-2.3-5.7s.8-4.1 2.3-5.7l42.9-42.9H1258c-4.4 0-8-3.6-8-8s3.6-8 8-8h124.7l-42.9-42.9c-1.6-1.6-2.3-3.6-2.3-5.7s.8-4.1 2.3-5.7c3.1-2.8 8.2-2.8 11.3.4z"/>
    </symbol>
    <symbol id="icon-btn-arrow" viewBox="2793.7 1265.4 72.7 129.1">
        <path d="M2847,1330l-50.9-50.9c-3.1-3.1-3.1-8.2,0-11.3c3.1-3.1,8.2-3.1,11.3,0l56.6,56.6c3.1,3.1,3.1,8.2,0,11.3
        l-56.6,56.6c-1.6,1.6-3.6,2.3-5.7,2.3s-4.1-0.8-5.7-2.3c-3.1-3.1-3.1-8.2,0-11.3L2847,1330z"/>
    </symbol>
    <symbol id="icon-cta-arrow" viewBox="1250 265.5 160 129"><path d="M1351.1 268l56.5 56.5h.1c.1.1.2.3.4.5s.4.5.6.7l.3.6c.1.3.3.5.4.8s.2.5.2.8c.1.2.2.5.2.7.1.5.2 1 .2 1.5s-.1 1.1-.2 1.6c0 .2-.1.4-.2.7-.1.3-.1.6-.3.8-.1.3-.3.5-.4.7l-.3.6c-.2.3-.4.5-.6.7-.1.2-.2.3-.4.5h-.1l-56.5 56.5c-3.1 3.1-8.2 3.1-11.3 0-1.6-1.6-2.3-3.6-2.3-5.7s.8-4.1 2.3-5.7l42.9-42.9H1258c-4.4 0-8-3.6-8-8s3.6-8 8-8h124.7l-42.9-42.9c-1.6-1.6-2.3-3.6-2.3-5.7s.8-4.1 2.3-5.7c3.1-2.8 8.2-2.8 11.3.4z"/></symbol>
    <symbol id="logo_bw" xmlns:xlink="http://www.w3.org/1999/xlink" viewBox="0 0 893.4 326"><defs><path id="a" d="M51.6 282c-21.5-20.1-37.2-45.7-45.4-74.8-11.8-41.8-6.6-85.7 14.5-123.6C49.5 32 104.1 0 163.2 0c27.3 0 54.5 7 78.6 20.3.4.2.7.4 1 .5l.2.2c15.4 8.9 25.1 25.5 25.1 43.4 0 27.6-22.4 50-50 50-8.4 0-16.8-2.1-24.1-6.2l-57-31.4c-8.8-4.9-18.8-7.4-28.9-7.4-33.1 0-60 26.9-60 60s26.9 60 60 60c9.5 0 19-2.3 27.4-6.6l59.9-30.7c7.1-3.6 14.8-5.5 22.8-5.5 27.6 0 50 22.4 50 50s-22.4 50-50 50c-8.4 0-16.8-2.1-24.1-6.2l-57-31.4c-8.8-4.9-18.8-7.4-28.9-7.4-33.1 0-60 26.9-60 60-.2 7.1 1.1 14 3.4 20.4zm253.8-39.6c21.2-37.9 26.3-81.8 14.5-123.6-8.2-29-23.9-54.7-45.4-74.8 2.3 6.4 3.6 13.3 3.6 20.3 0 33.1-26.9 60-60 60-10.1 0-20.1-2.6-28.9-7.4l-57-31.4c-7.3-4-15.7-6.2-24.1-6.2-27.6 0-50 22.4-50 50s22.4 50 50 50c8 0 15.7-1.8 22.8-5.5l59.9-30.7c8.4-4.3 17.9-6.6 27.4-6.6 33.1 0 60 26.9 60 60s-26.9 60-60 60c-10.1 0-20.1-2.6-28.9-7.4l-57-31.4c-7.3-4-15.7-6.2-24.1-6.2-27.6 0-50 22.4-50 50 0 17.9 9.6 34.5 25.1 43.4l.3.2c.3.2.6.3.9.5 24.1 13.3 51.2 20.3 78.6 20.3 58.9.1 113.5-31.9 142.3-83.5z"/></defs><use overflow="visible" xlink:href="#a"/><g><path d="M409.2 70.8V93h52.7v25.3h-52.7v42.2h-26.3v-115h89.8v25.3h-63.5zM570.1 78.3v82.1h-24.6v-7.7c-4.4 6.1-12.6 10-23.5 10-16.6 0-30.7-11.8-30.7-34V78.3h24.6v46.8c0 10.2 6.4 14.9 14.3 14.9 9 0 15.3-5.3 15.3-16.9V78.3h24.6zM625.4 102v29c0 7.1 6.1 7.7 16.9 7.1v22.3c-32.2 3.3-41.5-6.4-41.5-29.4v-29h-13.1V78.3h13.1V62.7l24.6-7.4v23h16.9V102h-16.9zM735.6 78.3v82.1H711v-7.7c-4.4 6.1-12.6 10-23.5 10-16.6 0-30.7-11.8-30.7-34V78.3h24.6v46.8c0 10.2 6.4 14.9 14.3 14.9 9 0 15.3-5.3 15.3-16.9V78.3h24.6zM802.9 76.7v27.9c-10.2-1.6-24.6 2.5-24.6 18.7v37.1h-24.6V78.3h24.6v14.6c3.2-11 14.2-16.2 24.6-16.2zM853.6 140.7c6.7 0 12.5-2.6 15.8-6.2l19.7 11.3c-8 11.2-20.2 16.9-35.8 16.9-28.1 0-45.5-18.9-45.5-43.3S825.5 76 851.5 76c24 0 41.7 18.6 41.7 43.3 0 3.4-.3 6.7-1 9.9h-58.3c3.1 8.5 10.7 11.5 19.7 11.5zm15.1-29.9c-2.6-9.5-10-13-17.4-13-9.4 0-15.6 4.6-17.9 13h35.3zM473.2 176.8v114.9h-19.7l-44.3-62.4v62.4h-26.3V176.8h19.7l44.3 62.4v-62.4h26.3zM576.3 209.7v82.1h-24.6V284c-5.4 6.2-13.5 10-24.5 10-21.5 0-39.2-18.9-39.2-43.3s17.7-43.3 39.2-43.3c11 0 19 3.8 24.5 10v-7.7h24.6zm-24.6 41c0-12.3-8.2-20-19.5-20s-19.5 7.7-19.5 20 8.2 20 19.5 20 19.5-7.7 19.5-20zM625.6 233.3v29.1c0 7.1 6.1 7.7 16.9 7.1v22.3c-32.2 3.3-41.5-6.4-41.5-29.4v-29.1h-13.1v-23.6H601v-15.6l24.6-7.4v23h16.9v23.6h-16.9zM735.8 209.7v82.1h-24.6V284c-4.4 6.1-12.6 10-23.5 10-16.6 0-30.7-11.8-30.7-34v-50.4h24.6v46.8c0 10.2 6.4 14.9 14.3 14.9 9 0 15.3-5.3 15.3-16.9v-44.8h24.6zM803.1 208v27.9c-10.2-1.6-24.6 2.5-24.6 18.7v37.1h-24.6v-82.1h24.6v14.6c3.2-10.9 14.2-16.2 24.6-16.2zM853.8 272.1c6.7 0 12.5-2.6 15.8-6.2l19.7 11.3c-8 11.2-20.2 16.9-35.8 16.9-28.1 0-45.5-18.9-45.5-43.3s17.7-43.3 43.7-43.3c24 0 41.7 18.6 41.7 43.3 0 3.4-.3 6.7-1 9.9h-58.3c3.1 8.4 10.7 11.4 19.7 11.4zm15.1-29.9c-2.6-9.5-10-13-17.4-13-9.4 0-15.6 4.6-17.9 13h35.3z"/></g></symbol>
    <symbol id="logo_bw_vertical" xmlns="http://www.w3.org/2000/svg" viewBox="0 0 336.1 487.2"><path d="M56.5 287c-21.5-20.1-37.2-45.7-45.4-74.8-11.8-41.8-6.6-85.7 14.5-123.6C54.4 37 109 5 168.2 5c27.3 0 54.5 7 78.6 20.3.4.2.7.4 1 .5l.2.2c15.4 8.9 25.1 25.5 25.1 43.4 0 27.6-22.4 50-50 50-8.4 0-16.8-2.1-24.1-6.2l-57-31.4c-8.8-4.9-18.8-7.4-28.9-7.4-33.1 0-60 26.9-60 60s26.9 60 60 60c9.5 0 19-2.3 27.4-6.6l59.9-30.7c7.1-3.6 14.8-5.5 22.8-5.5 27.6 0 50 22.4 50 50s-22.4 50-50 50c-8.4 0-16.8-2.1-24.1-6.2l-57-31.4c-8.8-4.9-18.8-7.4-28.9-7.4-33.1 0-60 26.9-60 60-.2 7.1 1 14 3.3 20.4zm253.8-39.6c21.2-37.9 26.3-81.8 14.5-123.6-8.2-29-23.9-54.7-45.4-74.8 2.3 6.4 3.6 13.3 3.6 20.3 0 33.1-26.9 60-60 60-10.1 0-20.1-2.6-28.9-7.4l-57-31.4c-7.3-4-15.7-6.2-24.1-6.2-27.6 0-50 22.4-50 50s22.4 50 50 50c8 0 15.7-1.8 22.8-5.5l59.9-30.7c8.4-4.3 17.9-6.6 27.4-6.6 33.1 0 60 26.9 60 60s-26.9 60-60 60c-10.1 0-20.1-2.6-28.9-7.4l-57-31.4c-7.3-4-15.7-6.2-24.1-6.2-27.6 0-50 22.4-50 50 0 17.9 9.6 34.5 25.1 43.4l.3.2c.3.2.6.3.9.5 24.1 13.3 51.2 20.3 78.6 20.3 59 .1 113.6-31.9 142.3-83.5zM66.6 380.5v10.6h25.2v12.1H66.6v20.2H54.1v-54.9H97v12.1H66.6v-.1zm76.9 3.6v39.2h-11.7v-3.7c-2.1 2.9-6 4.8-11.2 4.8-7.9 0-14.7-5.6-14.7-16.2v-24.1h11.7v22.4c0 4.9 3.1 7.1 6.8 7.1 4.3 0 7.3-2.5 7.3-8.1v-21.4h11.8zm26.4 11.3v13.9c0 3.4 2.9 3.7 8.1 3.4v10.7c-15.4 1.6-19.8-3.1-19.8-14v-13.9h-6.3v-11.3h6.3v-7.5l11.7-3.5v11h8.1v11.3h-8.1v-.1zm52.6-11.3v39.2h-11.7v-3.7c-2.1 2.9-6 4.8-11.2 4.8-7.9 0-14.7-5.6-14.7-16.2v-24.1h11.7v22.4c0 4.9 3.1 7.1 6.8 7.1 4.3 0 7.3-2.5 7.3-8.1v-21.4h11.8zm32.2-.8v13.3c-4.9-.8-11.7 1.2-11.7 8.9v17.7h-11.7V384H243v7c1.5-5.2 6.8-7.7 11.7-7.7zm24.2 30.6c3.2 0 6-1.2 7.5-3l9.4 5.4c-3.8 5.3-9.6 8.1-17.1 8.1-13.4 0-21.7-9-21.7-20.7s8.5-20.7 20.8-20.7c11.5 0 19.9 8.9 19.9 20.7 0 1.6-.1 3.2-.5 4.7h-27.8c1.6 4.1 5.2 5.5 9.5 5.5zm7.2-14.3c-1.2-4.5-4.8-6.2-8.3-6.2-4.5 0-7.5 2.2-8.5 6.2h16.8zM97.3 431.1V486h-9.4l-21.2-29.8V486H54.1v-54.9h9.4l21.2 29.8v-29.8h12.6zm49.2 15.8v39.2h-11.7v-3.7c-2.6 3-6.4 4.8-11.7 4.8-10.3 0-18.7-9-18.7-20.7s8.5-20.7 18.7-20.7c5.3 0 9.1 1.8 11.7 4.8v-3.7h11.7zm-11.8 19.5c0-5.9-3.9-9.6-9.3-9.6s-9.3 3.7-9.3 9.6 3.9 9.6 9.3 9.6 9.3-3.7 9.3-9.6zm35.3-8.3V472c0 3.4 2.9 3.7 8.1 3.4v10.7c-15.4 1.6-19.8-3.1-19.8-14v-13.9H152v-11.3h6.3v-7.5l11.7-3.5v11h8.1v11.3l-8.1-.1zm52.6-11.2v39.2h-11.7v-3.7c-2.1 2.9-6 4.8-11.2 4.8-7.9 0-14.7-5.6-14.7-16.2v-24.1h11.7v22.4c0 4.9 3.1 7.1 6.8 7.1 4.3 0 7.3-2.5 7.3-8.1v-21.4h11.8zm32.2-.9v13.3c-4.9-.8-11.7 1.2-11.7 8.9V486h-11.7v-39.2H243v7c1.6-5.2 6.9-7.8 11.8-7.8zm24.2 30.7c3.2 0 6-1.2 7.5-3l9.4 5.4c-3.8 5.3-9.6 8.1-17.1 8.1-13.4 0-21.7-9-21.7-20.7s8.5-20.7 20.9-20.7c11.5 0 19.9 8.9 19.9 20.7 0 1.6-.1 3.2-.5 4.7h-27.8c1.5 4 5.1 5.5 9.4 5.5zm7.2-14.3c-1.2-4.5-4.8-6.2-8.3-6.2-4.5 0-7.5 2.2-8.5 6.2h16.8z"/></symbol>
    <symbol id="icon_mail" viewBox="147 53 22 18"><path d="M166 53h-16c-1.7 0-3 1.3-3 3v12c0 1.7 1.3 3 3 3h16c1.7 0 3-1.3 3-3V56c0-1.7-1.3-3-3-3zm0 2c.1 0 .2 0 .3.1l-8.3 6.7-8.3-6.7c.1 0 .2-.1.3-.1h16zm0 14h-16c-.6 0-1-.4-1-1V57.1l8.4 6.7c.2.1.4.2.6.2s.4-.1.6-.2l8.4-6.7V68c0 .6-.4 1-1 1z"/></symbol>
    <symbol id="icon_phone" viewBox="0 0 90 90"><path d="M3.5 34.3c4.3 11 11.8 22.1 21 31.3C36.8 78 49.4 84 55.7 86.5 59 87.8 65.4 90 70.8 90c3 0 5.8-.7 7.7-2.5l.2-.2L88 76.5c2.8-2.9 2.6-7.9-.5-10.9l-.3-.3-13.3-10.6c-3-2.8-7.6-2.7-10.5.2-.2.2-.4.4-.5.6l-3.6 5.4c-1.9-.4-7.3-3.2-17.2-13.1-9.8-9.8-12.6-15.3-13-17.1l5.4-3.6c.2-.1.4-.3.6-.5 2.9-2.9 2.9-7.5.2-10.5L24.7 2.8l-.3-.3C23.1 1.2 21.2.3 19.2.1 17-.1 14.9.6 13.4 2L2.7 11.3l-.2.2c-5.2 5.2-1 17.6 1 22.8zm4.7-17.2L18.6 8l10.3 13-5.3 3.5c-.1.1-.2.1-.3.2-1.3 1.3-2.2 3.1-2.3 5.1-.4 7.8 11.6 19.8 15.5 23.7C52.4 69.4 58.3 69.1 60.2 69c2-.1 3.7-1 4.9-2.4.1-.1.2-.2.2-.3l3.5-5.3 13 10.3-9.1 10.4c-3.5 1.7-24.3-3.3-42.8-21.8C11.6 41.4 6.5 20.6 8.2 17.1z"/></symbol>
</svg>